<?xml version="1.0" encoding="utf-8"?>
<!-- Generator: Adobe Illustrator 16.2.1, SVG Export Plug-In . SVG Version: 6.00 Build 0)  -->
<!DOCTYPE svg PUBLIC "-//W3C//DTD SVG 1.1 Tiny//EN" "http://www.w3.org/Graphics/SVG/1.1/DTD/svg11-tiny.dtd">
<svg version="1.1" baseProfile="tiny" id="Layer_1" xmlns="http://www.w3.org/2000/svg" xmlns:xlink="http://www.w3.org/1999/xlink"
	 x="0px" y="0px" viewBox="166 235.585 281.662 321.448" xml:space="preserve">
<g>
	<path fill="#FFFFFF" d="M310.497,555.033c-53.121,0-99.798-17.705-113.51-43.059l-0.241-0.443v-16.703
		c-12.893-8.355-20.231-18.077-21.278-28.198c-4.956-7.395-7.468-15.229-7.468-23.295c0-9.713,3.587-18.993,10.663-27.593v-66.344
		c0-61.654,59.141-111.813,131.834-111.813c72.692,0,131.832,50.159,131.832,111.813v89.541c1.124,1.485,3.334,5.338,3.334,12.646
		v12.502c0,11.045-7.399,21.658-21.416,30.741v16.701l-0.24,0.443C410.297,537.327,363.62,555.033,310.497,555.033"/>
</g>
<g>
	<path fill="#010101" d="M310.497,239.585c71.705,0,129.832,49.165,129.832,109.813v90.268c0,0,3.334,3.252,3.334,11.919v12.502
		c0,10.934-7.873,21.112-21.416,29.646v17.291c-13.076,24.182-58.15,42.01-111.75,42.01c-53.602,0-98.673-17.828-111.751-42.008
		v-17.293c-12.777-8.051-20.5-17.566-21.334-27.8c-4.775-6.974-7.412-14.602-7.412-22.599c0-9.66,3.844-18.785,10.663-26.869
		v-67.068C180.663,288.75,238.791,239.585,310.497,239.585 M310.497,235.585c-35.624,0-69.146,11.758-94.39,33.109
		c-25.436,21.514-39.444,50.175-39.444,80.704v65.635c-6.981,8.714-10.663,18.47-10.663,28.302c0,8.32,2.534,16.389,7.535,24
		c1.263,10.314,8.561,20.141,21.211,28.572v16.131l0.482,0.89c6.949,12.85,21.739,23.88,42.771,31.906
		c20.917,7.98,45.986,12.199,72.498,12.199c26.512,0,51.58-4.219,72.497-12.199c21.033-8.026,35.823-19.06,42.771-31.909
		l0.481-0.889v-16.129c14.021-9.342,21.416-20.312,21.416-31.82v-12.502c0-7.007-1.979-11.204-3.334-13.259v-88.928
		c0-30.529-14.008-59.19-39.443-80.704C379.643,247.343,346.121,235.585,310.497,235.585"/>
</g>
<g>
	<path fill="#4D4D4F" d="M440.497,345.043c0-50.695-58.205-91.792-130.002-91.792c-71.796,0-129.999,41.097-129.999,91.792
		c0,0.349,0.014,0.694,0.019,1.042h-0.019v80.833c0,9.57,58.203,17.328,130.001,17.328c71.799,0,130-7.758,130-17.328v-80.833
		h-0.021C440.483,345.737,440.497,345.392,440.497,345.043"/>
</g>
<g>
	<path d="M216.771,438.925c23.653,3.28,56.9,5.321,93.726,5.321c38.953,0,73.899-2.284,97.725-5.902V362.88h-0.016
		c0.006-0.278,0.016-0.554,0.016-0.833c0-23.401-14.295-44.244-36.555-57.679c4.467-7.74,7.117-16.421,7.424-25.622
		c-19.043-9.784-41.946-15.495-66.596-15.495c-27.074,0-52.047,6.891-72.105,18.504c0.817,9.125,3.934,17.682,8.838,25.235
		c-19.9,13.445-32.457,33.126-32.457,55.057c0,0.279,0.01,0.555,0.014,0.833h-0.014V438.925"/>
</g>
<g>
	<path fill="#010101" d="M327.812,489.418c1.164-1.146,2.185-2.416,3-3.807v-17.335c-0.815-1.392-1.836-2.661-3-3.808V489.418"/>
</g>
<g>
	<path fill="#010101" d="M322.646,493.085c1.062-0.521,2.062-1.136,3-1.821v-28.641c-0.938-0.684-1.938-1.299-3-1.823V493.085"/>
</g>
<g>
	<path fill="#010101" d="M316.646,494.964c1.027-0.162,2.029-0.394,3-0.697V459.62c-0.971-0.301-1.973-0.534-3-0.698V494.964"/>
</g>
<g>
	<path fill="#010101" d="M306.812,494.267c0.97,0.305,1.972,0.535,3,0.697v-36.043c-1.028,0.164-2.03,0.397-3,0.698V494.267"/>
</g>
<g>
	<path fill="#010101" d="M301.646,491.835c0.942,0.618,1.946,1.157,3,1.619v-33.021c-1.054,0.464-2.058,1.001-3,1.619V491.835"/>
</g>
<g>
	<path fill="#010101" d="M295.646,485.61c0.816,1.39,1.835,2.661,3,3.806V464.47c-1.166,1.147-2.185,2.416-3,3.809V485.61"/>
</g>
<g>
	<path fill="#010101" d="M197.983,494.509c23.879,15.034,65.61,24.923,112.514,24.929c46.903-0.006,88.642-9.895,112.52-24.929
		l-0.531-0.847c-23.606,14.88-65.23,24.78-111.987,24.773c-46.758,0.007-88.374-9.895-111.98-24.773L197.983,494.509"/>
</g>
<g>
	<path fill="#010101" d="M180.186,430.814c0.038,0.125,0.495,1.397,3.089,3.217c3.895,2.728,12.607,6.726,32.195,10.061
		c19.587,3.332,50.053,5.993,97.447,5.993c55.529,0,87.525-4.73,105.668-9.476c18.142-4.746,22.445-9.509,22.54-9.611l-0.748-0.664
		l0.102,0.09l-0.1-0.092l-0.002,0.002l0.102,0.09l-0.1-0.092c-0.039,0.046-4.371,4.743-22.472,9.42
		c-18.1,4.678-49.952,9.333-104.99,9.333c-63.141,0.001-96.172-4.73-113.37-9.442c-8.599-2.354-13.236-4.702-15.698-6.431
		c-1.231-0.862-1.919-1.569-2.292-2.043c-0.188-0.237-0.296-0.416-0.356-0.526l-0.056-0.116l-0.008-0.02l-0.183,0.067l0.186-0.06
		l-0.003-0.009l-0.183,0.067l0.186-0.06L180.186,430.814"/>
</g>
<g>
	<path fill="#A03122" d="M367.251,473.252c0,3.314-2.688,6-6,6c-3.313,0-6-2.686-6-6s2.687-6,6-6
		C364.562,467.252,367.251,469.938,367.251,473.252"/>
</g>
<g>
	<path fill="#2C97D1" d="M385.538,469.241c0,2.991-2.424,5.417-5.416,5.417c-2.99,0-5.416-2.426-5.416-5.417
		s2.426-5.417,5.416-5.417C383.114,463.824,385.538,466.25,385.538,469.241"/>
</g>
<g>
	<path fill="#4CAB48" d="M408.692,460.8c0,2.226-1.802,4.026-4.025,4.026c-2.221,0-4.023-1.802-4.023-4.026
		c0-2.222,1.804-4.023,4.023-4.023C406.892,456.775,408.692,458.578,408.692,460.8"/>
</g>
<g>
	<path fill="#A03122" d="M249.438,461.274c-4.961,0-9.624,1.3-13.678,3.573l0.14,0.035c-2.105,1.625-9.257,7.6-2.65,9.034
		c4.383,0.953,11.701,1.361,17.17,1.536c-2.475,4.262-3.9,9.226-3.9,14.532c0,2.379,0.296,4.685,0.837,6.896
		c10.776,2.2,20.808,3.479,28.199,4.203c1.414-3.415,2.195-7.164,2.195-11.099C277.751,474.128,265.075,461.274,249.438,461.274"/>
</g>
<g>
	<path fill="#010101" d="M250.42,475.454l0.032-1c-2.724-0.087-5.907-0.232-8.945-0.473c-3.036-0.241-5.934-0.58-8.045-1.04
		c-0.896-0.192-1.417-0.473-1.66-0.696c-0.238-0.233-0.279-0.363-0.292-0.632c-0.006-0.307,0.153-0.809,0.494-1.369
		c0.504-0.847,1.367-1.805,2.235-2.628c0.868-0.826,1.741-1.53,2.272-1.94l1.645-1.269l-2.018-0.494
		c-25.1-6.137-44.981-18.396-54.632-33.522l-0.843,0.539l0.998-0.062l-1.07-16.948l-1.605,1.904
		c-6.973,8.257-9.992,17.651-9.986,27.513c-0.001,7.37,2.179,14.434,6.142,20.94c5.946,9.762,15.881,18.289,28.576,24.945
		c12.697,6.656,28.165,11.444,45.232,13.683l1.78,0.231l-0.738-1.636c-1.583-3.508-2.472-7.403-2.472-11.514
		c0-5.126,1.376-9.914,3.765-14.03l0.84-1.448l-1.673-0.054L250.42,475.454l-0.865-0.502c-2.56,4.409-4.036,9.548-4.035,15.034
		c-0.001,4.398,0.952,8.579,2.649,12.337l0.911-0.411l0.13-0.992c-22.475-2.943-42.099-10.377-56.041-20.57
		c-6.972-5.096-12.522-10.877-16.319-17.113c-3.798-6.24-5.849-12.93-5.85-19.9c0.006-9.46,2.85-18.312,9.514-26.225l-0.764-0.646
		l-0.998,0.063l0.929,14.721l0.139,0.217c10.081,15.75,30.397,28.151,55.843,34.391l0.237-0.974l-0.611-0.791
		c-0.759,0.587-2.138,1.705-3.365,3.019c-0.614,0.657-1.191,1.363-1.636,2.104c-0.439,0.743-0.771,1.528-0.778,2.397
		c-0.012,0.752,0.316,1.556,0.948,2.111c0.628,0.564,1.476,0.929,2.579,1.172c2.273,0.49,5.225,0.832,8.312,1.076
		c3.084,0.245,6.294,0.393,9.039,0.479L250.42,475.454l-0.865-0.502L250.42,475.454"/>
</g>
<g>
	<path fill="#010101" d="M194.626,445.539c-0.045,0.014-3.692,1.077-7.357,4.445c-3.666,3.361-7.326,9.065-7.32,18.205
		c0,0.597,0.016,1.209,0.048,1.836l0.998-0.053c-0.031-0.608-0.046-1.205-0.046-1.783c0.006-8.868,3.504-14.249,6.997-17.471
		c1.747-1.607,3.497-2.667,4.807-3.32c0.654-0.328,1.198-0.556,1.575-0.698c0.189-0.071,0.336-0.123,0.435-0.155l0.11-0.036
		l0.032-0.01L194.626,445.539"/>
</g>
<g>
	<path fill="#010101" d="M201.341,450.29c-0.049,0.02-3.534,1.36-7.024,5.241c-3.491,3.878-6.963,10.311-6.959,20.395
		c0,0.501,0.009,1.011,0.026,1.53l0.999-0.034c-0.017-0.508-0.025-1.007-0.025-1.496c0.004-9.854,3.363-16.005,6.703-19.727
		c1.671-1.859,3.341-3.108,4.589-3.891c0.624-0.391,1.142-0.662,1.502-0.839c0.179-0.088,0.319-0.149,0.412-0.189l0.105-0.044
		l0.029-0.014L201.341,450.29"/>
</g>
<g>
	<path fill="#010101" d="M209.238,454.842c-0.032,0.021-3.141,1.834-6.26,5.572c-3.118,3.735-6.246,9.415-6.245,17.103
		c0,2.321,0.285,4.823,0.937,7.507l0.972-0.236c-0.635-2.609-0.909-5.03-0.909-7.271c0.001-7.406,3.001-12.849,6.012-16.462
		c1.506-1.805,3.012-3.146,4.139-4.036c0.564-0.442,1.033-0.773,1.358-0.991c0.163-0.11,0.29-0.191,0.375-0.244l0.096-0.061
		l0.029-0.017L209.238,454.842"/>
</g>
<g>
	<path fill="#010101" d="M217.837,458.776c-0.031,0.021-2.616,1.792-5.207,5.292c-2.589,3.498-5.185,8.74-5.185,15.659
		c0,3.487,0.66,7.396,2.298,11.706l0.935-0.354c-1.599-4.209-2.232-7.991-2.232-11.353c0-6.661,2.491-11.688,4.988-15.064
		c1.249-1.688,2.498-2.958,3.431-3.804c0.467-0.425,0.855-0.74,1.124-0.95c0.135-0.105,0.24-0.185,0.31-0.234l0.079-0.057
		l0.023-0.018L217.837,458.776"/>
</g>
<g>
	<path fill="#010101" d="M227.127,462.13c-0.027,0.022-2.474,1.964-4.927,5.54c-2.451,3.574-4.912,8.795-4.912,15.344
		c0,3.777,0.82,7.989,2.918,12.56l0.909-0.417c-2.041-4.448-2.827-8.509-2.827-12.143c0-6.292,2.364-11.315,4.737-14.776
		c1.186-1.73,2.373-3.066,3.261-3.969c0.444-0.448,0.813-0.792,1.069-1.019c0.128-0.114,0.228-0.199,0.295-0.256l0.098-0.08
		L227.127,462.13"/>
</g>
<g>
	<path fill="#010101" d="M189.618,441.166c-0.046,0.007-3.807,0.45-7.698,3.082c-3.892,2.625-7.886,7.501-8.261,16.163l0.999,0.044
		c0.38-8.366,4.145-12.875,7.823-15.379c1.841-1.247,3.665-1.979,5.024-2.396c0.68-0.209,1.243-0.341,1.634-0.418
		c0.195-0.039,0.347-0.065,0.449-0.082l0.114-0.016l0.033-0.005L189.618,441.166"/>
</g>
<g>
	<path fill="#010101" d="M232.844,473.627c-0.037,0.052-3.661,5.126-3.663,13.701c0,3.33,0.548,7.184,2.062,11.464l0.943-0.333
		c-1.476-4.174-2.005-7.911-2.005-11.131c0-4.146,0.877-7.436,1.751-9.687c0.436-1.125,0.872-1.988,1.197-2.569
		c0.162-0.29,0.296-0.51,0.389-0.654l0.106-0.161l0.032-0.047L232.844,473.627"/>
</g>
<g>
	<path fill="#010101" d="M244.7,474.951c-0.025,0.044-4.028,6.175-4.033,14.712c-0.001,3.521,0.686,7.45,2.621,11.503l0.902-0.431
		c-1.865-3.909-2.523-7.682-2.523-11.072c-0.001-4.109,0.97-7.661,1.942-10.181c0.486-1.262,0.972-2.264,1.334-2.946
		c0.182-0.342,0.332-0.604,0.436-0.78l0.12-0.197l0.039-0.062L244.7,474.951"/>
</g>
<g>
	<path fill="#010101" d="M184.796,435.973c-0.012,0-0.232-0.019-0.61-0.019c-1.276,0.001-4.366,0.202-7.387,2.011
		c-3.024,1.805-5.932,5.262-6.75,11.555l0.992,0.132c0.802-6.043,3.493-9.15,6.272-10.828c2.783-1.672,5.703-1.87,6.873-1.868
		c0.173,0,0.307,0.004,0.397,0.008l0.1,0.005l0.029,0.002L184.796,435.973"/>
</g>
<g>
	<path fill="#010101" d="M180.753,431.438c-0.022-0.004-0.655-0.118-1.617-0.118c-1.262,0-3.096,0.194-4.851,1.135
		c-1.755,0.936-3.408,2.647-4.221,5.542l0.962,0.271c0.757-2.653,2.189-4.1,3.732-4.934c1.543-0.83,3.219-1.018,4.378-1.016
		c0.441,0,0.805,0.024,1.057,0.052c0.126,0.014,0.224,0.026,0.289,0.036l0.072,0.011l0.019,0.004L180.753,431.438"/>
</g>
<g>
	<path fill="#010101" d="M180.839,426.284c-0.039-0.016-0.836-0.312-2.06-0.312c-1.671-0.007-4.158,0.579-6.44,3.164l0.748,0.663
		c2.101-2.362,4.238-2.821,5.692-2.827c0.53,0,0.967,0.064,1.266,0.129c0.15,0.031,0.265,0.063,0.341,0.086l0.082,0.025l0.018,0.008
		h0.001L180.839,426.284"/>
</g>
<g>
	<path d="M432.751,433.002v-77.417h-0.518v0.5l0.5,0.006c0.004-0.339,0.018-0.686,0.018-1.048c0-25.53-13.505-48.622-35.272-65.303
		c-21.769-16.685-51.811-26.988-84.982-26.989c-33.172,0.001-63.213,10.304-84.982,26.989
		c-21.767,16.681-35.271,39.772-35.271,65.303c0,0.36,0.012,0.708,0.018,1.05l0.5-0.008v-0.5h-0.518v78.683h1v-78.183h-0.5v0.5
		h0.526l-0.008-0.508c-0.006-0.354-0.018-0.697-0.018-1.034c0.001-25.165,13.304-47.968,34.879-64.51
		c21.573-16.537,51.409-26.782,84.374-26.782c32.966,0,62.802,10.245,84.376,26.782c21.576,16.542,34.88,39.345,34.88,64.51
		c0,0.336-0.014,0.679-0.018,1.036l-0.007,0.506h0.023v76.417H432.751"/>
</g>
<g>
	<path fill="#010101" d="M247.284,497.492c16.588,3.467,37.305,5.593,63.213,5.593c61.37-0.001,94.088-11.987,111.5-25.593
		c17.416-13.607,19.427-28.83,19.42-35.029c0-1.809-0.169-2.854-0.173-2.877l-0.987,0.16l0.006,0.039
		c0.029,0.197,0.154,1.147,0.154,2.678c-0.008,5.998-1.897,20.836-19.036,34.241c-17.144,13.406-49.636,25.383-110.884,25.381
		c-25.853,0.001-46.504-2.123-63.008-5.572L247.284,497.492"/>
</g>
<g>
	<path fill="#010101" d="M249.284,502.492c16.588,3.467,37.305,5.593,63.213,5.593c61.37-0.001,94.088-11.987,111.5-25.593
		c17.416-13.607,19.427-28.83,19.42-35.029c0-1.809-0.169-2.854-0.173-2.877l-0.987,0.16l0.006,0.039
		c0.029,0.197,0.154,1.147,0.154,2.678c-0.008,5.998-1.897,20.836-19.036,34.241c-17.144,13.406-49.636,25.383-110.884,25.381
		c-25.853,0.001-46.504-2.123-63.008-5.572L249.284,502.492"/>
</g>
<g>
	<path fill="#191919" d="M344.917,379.252c0,0-0.666-18.001-7.666-41.001c0,0,16.334-7,26.666-12.666
		c0,0,16.334,23.667,19.668,45.666C383.585,371.251,367.585,378.252,344.917,379.252"/>
</g>
</svg>
